<svg width="82" height="24" viewBox="0 0 82 24" fill="none" xmlns="http://www.w3.org/2000/svg">
<g clip-path="url(#clip0_4989_12379)">
<path fill-rule="evenodd" clip-rule="evenodd" d="M10.5702 17.4299L8.19467 15.8145L19.482 8.11086L12.5046 3.35973L9.23313 5.59955L11.7784 7.30317L5.90734 11.2738L1.0001 7.9819L12.8236 0L24.5657 7.96154L10.5702 17.4299ZM15.0159 6.50226L1.02046 15.9977L12.7286 23.9253L24.5929 15.9434L19.6788 12.6516L13.8078 16.6222L16.353 18.3258L13.0815 20.5656L6.11096 15.8145L17.3915 8.11086L15.0159 6.50226ZM5.8191 20.7624L0.966163 24L0.945801 20.7692L3.39603 19.0995L5.8191 20.7692V20.7624ZM19.8757 3.28507L22.3055 4.96833L24.6879 3.36652V0.0678733L19.8757 3.28507ZM75.9526 19.9955C78.8983 19.9955 81.9187 19.6425 81.9187 15.5158C81.9187 10.4796 74.0793 11.1787 74.0793 8.16516C74.0793 7.04525 74.8055 6.44796 76.0883 6.44796H80.4594V3.99774H75.6064C70.8553 3.99774 69.6743 5.92534 69.6743 8.4095C69.6743 13.2081 77.5476 12.8891 77.5476 15.7602C77.5476 16.8462 76.8892 17.5792 75.5725 17.5792H69.9865V19.9955H75.9526ZM56.2761 4.00452V6.65837H60.3214V19.9955H64.3734V6.65837H68.249V4.00452H56.2761ZM49.034 13.0113C50.3168 13.1131 50.9345 14.0905 50.9345 15.2851C50.9345 17.138 49.8282 17.4842 49.034 17.5588V20.0023H49.4481C51.0024 20.0023 54.844 19.8258 54.844 15.7738C54.844 13.5747 54.1856 12.0679 51.5929 11.7217V11.6878C53.568 11.3416 54.5657 10.0113 54.5657 8.15837C54.5657 4.73756 52.2444 4.00452 49.482 4.00452H49.034V6.4819C50.0386 6.51584 50.5883 7.3914 50.5883 8.50452C50.5883 9.90271 49.6517 10.5271 49.1019 10.5271H49.034V13.0045V13.0113ZM47.0929 13.0113H49.034V10.5339H47.0929V6.4819H49.034V4.00452H43.0137V19.9955H49.034V17.552H47.0929V13.0113ZM35.7648 13.0113C37.0476 13.1131 37.6653 14.0905 37.6653 15.2851C37.6653 17.138 36.5589 17.4842 35.7648 17.5588V20.0023H36.1788C37.7331 20.0023 41.5748 19.8258 41.5748 15.7738C41.5748 13.5747 40.9164 12.0679 38.3236 11.7217V11.6878C40.2987 11.3416 41.2965 10.0113 41.2965 8.15837C41.2965 4.73756 38.9752 4.00452 36.2128 4.00452H35.7648V6.4819C36.7693 6.51584 37.3191 7.3914 37.3191 8.50452C37.3191 9.90271 36.3825 10.5271 35.8327 10.5271H35.7648V13.0045V13.0113ZM35.5205 13.0113H35.7648V10.5339H33.8236V6.4819H35.7648V4.00452H29.7444V19.9955H35.7648V17.552H33.8236V13.0113H35.5205Z" fill="#FCFC30"/>
</g>
<defs>
<clipPath id="clip0_4989_12379">
<rect width="80.9729" height="24" fill="white" transform="translate(0.945801)"/>
</clipPath>
</defs>
</svg>
